<svg width="170" height="45" version="1.1" viewBox="0 0 170 45" xmlns="http://www.w3.org/2000/svg">
	<title>anotherkrunkerclient</title>
	<path d="m152 0c-5.07 0-10.1 0.881-14.9 2.64-4.85 1.74-9.04 4.3-12.6 7.69-2.19 2.1-3.89 3.93-5.35 6.49 3.3 0.0721 6.6 0.149 9.9 0.254 0.787-1.19 1.51-2.03 2.52-3.27 2.19-2.71 5.06-4.87 8.6-6.47 3.57-1.6 6.66-2.4 11.1-2.4 3.84 0 5.57 0.721 7.58 2.17 2.01 1.44 3.1 3.75 3.28 6.92l7.98-1.33c-0.075-4.02-1.67-7.14-4.78-9.35-3.11-2.22-7.55-3.32-13.3-3.32zm-114 0.742-16 18.3c0.719-0.0604 1.44-0.122 2.16-0.18 2.66-0.194 5.31-0.361 7.97-0.516l4.09-4.75c2.34-2.75 4.39-5.52 6.14-8.31 0.0286 2.35 0.288 5.36 0.781 9.03l0.463 3.48c2.9-0.116 5.79-0.217 8.69-0.301l-2.94-16.8zm39.5 0-8.74 23.9c4.42 0.272 9.54 0.432 15 0.459l4.98-2.89 1.62 2.87c3.35-0.0405 6.37-0.121 9.07-0.24l-3.94-6.48 30.6-17.6h-10.3l-36.4 21.6 7.89-21.6zm-18.2 17.5c-30.2 0.693-50.1 2.34-50.1 4.18-5.92e-4 2.5 36 4.52 80.4 4.52 44.4 0 80.4-2.03 80.4-4.52-4e-3 -1.81-19.3-3.45-48.9-4.16 12.4 0.839 19.6 2.14 19.6 3.51 2e-3 2.45-22.5 4.43-50.3 4.43-27.8 0-50.3-1.98-50.3-4.43 0.0021-1.35 7.13-2.61 19-3.45zm-42.9 7.29-16.3 18.7h10.2l11.1-13.2h24.1l1.89 13.2h9.72l-2.9-16.5c-9.61-0.262-19.2-0.616-28.8-1.34h-0.0508l2e-3 -0.0039c-1.07-0.0807-2.14-0.16-3.2-0.25-1.9-0.19-3.81-0.345-5.71-0.568zm109 2.16c-3.32 0.0921-6.64 0.173-9.96 0.238-0.239 2.03-0.182 3.99 0.178 5.87 0.717 3.62 2.66 6.39 5.83 8.31 3.2 1.9 7.9 2.85 14.1 2.85 5.99 0 11.5-1.24 16.5-3.71 5.07-2.49 9.27-6.1 12.6-10.8l-7.08-1.46c-2.38 3.66-5.39 6.42-9.03 8.28-3.64 1.86-7.58 2.79-11.8 2.79-3.5 0-4.99-0.617-7.5-1.98-2.51-1.37-3.4-3.49-3.84-6.24-0.184-1.27-0.173-2.65 0.0137-4.12zm-57.4 0.293-5.93 16.2h9.71l5.51-15.1 1.75-1.02c-3.68-0.0311-7.36-0.0785-11-0.139zm33.9 0.131c-3.11 0.0274-6.21 0.0437-9.32 0.0488l9.06 16.1h10z" fill="#24292f" stroke-width=".274"/>
</svg>
