<svg width="1280" height="640" version="1.1" viewBox="0 0 338.667 169.333" xmlns="http://www.w3.org/2000/svg">
	<title>anotherkrunkerclient</title>
	<g>
		<rect width="338.667" height="169.333" fill="#fff" stop-color="#000000" style="paint-order:stroke fill markers"/>
		<path d="m242.208 50.3623c-5.52321 0-11.0029 0.959767-16.232 2.87601-5.28358 1.89553-9.84812 4.68441-13.7264 8.37744-2.38579 2.28775-4.23776 4.28136-5.82827 7.0702 3.59499 0.07865 7.19001 0.162225 10.785 0.276689 0.85733-1.29636 1.64499-2.21146 2.74528-3.5623 2.38575-2.95226 5.51234-5.30536 9.36879-7.04842 3.88913-1.74302 7.25539-2.61455 12.0923-2.61455 4.18328 0 6.06795 0.785477 8.25762 2.36401 2.18968 1.56873 3.37714 4.08525 3.57321 7.53864l8.69341-1.44891c-0.0815-4.3794-1.81932-7.77831-5.20733-10.1858-3.38804-2.41848-8.22496-3.61681-14.489-3.61681zm-124.191 0.808329-17.4304 19.9359c0.7833-0.06588 1.56874-0.132992 2.3531-0.195989 2.89782-0.211222 5.78471-0.393212 8.6825-0.562149l4.45565-5.17463c2.54916-2.99582 4.78244-6.01347 6.68888-9.05286 0.0329 2.56008 0.31374 5.83914 0.85082 9.83722l0.50438 3.7911c3.15924-0.126403 6.30762-0.236338 9.46686-0.327744l-3.2028-18.3019zm43.0312 0-9.52129 26.0366c4.8151 0.296453 10.3928 0.470619 16.341 0.500018l5.42518-3.14833 1.76484 3.12655c3.64946-0.04405 6.93942-0.131756 9.88082-0.261454l-4.29223-7.05929 33.3355-19.1734h-11.2208l-39.654 23.531 8.59532-23.531zm-19.827 19.0644c-32.8997 0.754927-54.5787 2.54917-54.5787 4.55368-6.7e-4 2.72346 39.2183 4.92404 87.5875 4.92404 48.3692 0 87.5875-2.21146 87.5875-4.92404-5e-3 -1.97182-21.0254-3.75845-53.2715-4.5319 13.5085 0.913981 21.3522 2.33132 21.3522 3.82379 2e-3 2.66902-24.5114 4.82601-54.7966 4.82601-30.2852 0-54.7967-2.15698-54.7967-4.82601 2e-3 -1.4707 7.7674-2.84336 20.6986-3.75845zm-46.7351 7.94169-17.7572 20.3717h11.1118l12.0923-14.38h26.2545l2.05898 14.38h10.5889l-3.15928-17.9751c-10.4691-0.285336-20.9164-0.671054-31.3746-1.45978h-0.0552l2e-3 -0.0041c-1.16562-0.0877-2.33131-0.174166-3.48603-0.272572-2.06986-0.207105-4.15064-0.375918-6.22046-0.618763zm118.744 2.3531c-3.61682 0.100462-7.23363 0.188578-10.8504 0.259397-0.26021 2.2115-0.19845 4.3467 0.19393 6.39478 0.78108 3.9436 2.89779 6.96122 6.35119 9.05286 3.48603 2.06986 8.60619 3.1048 15.3605 3.1048 6.52551 0 12.5281-1.35087 17.9751-4.04167 5.52321-2.71259 10.0987-6.64533 13.7264-11.7655l-7.71293-1.59051c-2.59276 3.98717-5.87187 6.9939-9.83726 9.0202-3.96539 2.02626-8.25761 3.03943-12.8549 3.03943-3.81292 0-5.43613-0.67216-8.17049-2.15702-2.73438-1.49248-3.70394-3.80197-4.18329-6.79784-0.20052-1.38353-0.18858-2.88688 0.0165-4.4883zm-62.5314 0.319099-6.46013 17.6482h10.5781l6.00255-16.4499 1.90644-1.11116c-4.00896-0.03294-8.01795-0.08564-11.9833-0.151521zm36.9306 0.142874c-3.38804 0.02882-6.76518 0.04776-10.1532 0.05312l9.86995 17.5393h10.894z" fill="#24292f" stroke-width=".298494"/>
		<g transform="translate(-2.64583 -2.11667)" fill="#24292f" stroke-width=".264583" aria-label="anotherkrunkerclient">
			<path d="m90.3289 118.291h-1.52549v-1.48828h-0.03721q-0.995288 1.71152-2.93005 1.71152-1.42317 0-2.23242-0.75344-0.799951-0.75345-0.799951-1.99988 0-2.66961 3.14399-3.10679l2.85564-0.39997q0-2.42776-1.96267-2.42776-1.72083 0-3.10679 1.17202v-1.5627q1.40456-0.89297 3.23701-0.89297 3.35794 0 3.35794 3.55328zm-1.52549-4.81831-2.29753 0.31626q-1.0604 0.14882-1.5999 0.5302-0.539502 0.37207-0.539502 1.33015 0 0.69763 0.492993 1.14411 0.502295 0.43719 1.33015 0.43719 1.13481 0 1.86965-0.79065 0.74414-0.79995 0.74414-2.01848z"/>
			<path d="m101.11 118.291h-1.52549v-5.43223q0-3.03237-2.21382-3.03237-1.14412 0-1.89756 0.86506-0.744141 0.85576-0.744141 2.16731v5.43223h-1.52549v-9.525h1.52549v1.5813h0.03721q1.079-1.80455 3.12539-1.80455 1.5627 0 2.39055 1.0139 0.82785 1.00459 0.82785 2.91145z"/>
			<path d="m107.965 118.514q-2.1115 0-3.37654-1.33015-1.25574-1.33946-1.25574-3.54397 0-2.39986 1.31155-3.74861 1.31155-1.34876 3.54397-1.34876 2.1301 0 3.32073 1.31155 1.19992 1.31155 1.19992 3.63699 0 2.27893-1.29294 3.65559-1.28364 1.36736-3.45095 1.36736zm0.11162-8.68784q-1.46968 0-2.32544 1.00459-0.85576 0.99528-0.85576 2.75332 0 1.69292 0.86506 2.6696 0.86506 0.97669 2.31614 0.97669 1.47898 0 2.26963-0.95809 0.79995-0.95808 0.79995-2.72541 0-1.78594-0.79995-2.75332-0.79065-0.96738-2.26963-0.96738z"/>
			<path d="m119.564 118.198q-0.5395 0.29765-1.42317 0.29765-2.50217 0-2.50217-2.79052v-5.63687h-1.63711v-1.30224h1.63711v-2.32544l1.52549-0.493v2.81844h2.39985v1.30224h-2.39985v5.36712q0 0.95808 0.32556 1.36736 0.32556 0.40927 1.079 0.40927 0.57671 0 0.99529-0.31626z"/>
			<path d="m129.508 118.291h-1.52549v-5.48804q0-2.97656-2.21382-2.97656-1.11621 0-1.87895 0.86506-0.76275 0.85576-0.76275 2.20452v5.39502h-1.52548v-14.1015h1.52548v6.15777h0.0372q1.09761-1.80455 3.12539-1.80455 3.21841 0 3.21841 3.87884z"/>
			<path d="m140.037 113.91h-6.72517q0.0372 1.5906 0.85576 2.45566 0.81855 0.86507 2.25102 0.86507 1.60921 0 2.95796-1.0604v1.43247q-1.25574 0.91157-3.32073 0.91157-2.01848 0-3.17189-1.29295-1.15342-1.30224-1.15342-3.65559 0-2.22312 1.25573-3.61838 1.26504-1.40457 3.1347-1.40457 1.86965 0 2.89284 1.20923 1.0232 1.20923 1.0232 3.35794zm-1.5627-1.29295q-9e-3 -1.32085-0.64182-2.05568-0.62322-0.73484-1.73943-0.73484-1.079 0-1.83244 0.77204-0.75345 0.77205-0.93018 2.01848z"/>
			<path d="m147.311 110.31q-0.39997-0.30696-1.15341-0.30696-0.97669 0-1.63711 0.92087-0.65113 0.92088-0.65113 2.51148v4.85552h-1.52548v-9.525h1.52548v1.96267h0.0372q0.32556-1.00459 0.99529-1.5627 0.66973-0.56741 1.49758-0.56741 0.59531 0 0.91157 0.13023z"/>
			<path d="m156.874 118.291h-2.13941l-4.20439-4.57647h-0.0372v4.57647h-1.52549v-14.1015h1.52549v8.93899h0.0372l3.99975-4.36252h1.99988l-4.41833 4.59506z"/>
			<path d="m163.403 110.31q-0.39998-0.30696-1.15342-0.30696-0.97669 0-1.63711 0.92087-0.65113 0.92088-0.65113 2.51148v4.85552h-1.52548v-9.525h1.52548v1.96267h0.0372q0.32556-1.00459 0.99529-1.5627 0.66973-0.56741 1.49758-0.56741 0.59532 0 0.91158 0.13023z"/>
			<path d="m172.761 118.291h-1.52549v-1.50689h-0.0372q-0.94877 1.73013-2.93935 1.73013-3.40444 0-3.40444-4.05557v-5.69267h1.51618v5.45083q0 3.01377 2.30684 3.01377 1.11621 0 1.83244-0.81856 0.72554-0.82786 0.72554-2.15801v-5.48803h1.52549z"/>
			<path d="m183.746 118.291h-1.52549v-5.43223q0-3.03237-2.21382-3.03237-1.14411 0-1.89756 0.86506-0.74414 0.85576-0.74414 2.16731v5.43223h-1.52549v-9.525h1.52549v1.5813h0.0372q1.079-1.80455 3.12539-1.80455 1.56269 0 2.39055 1.0139 0.82786 1.00459 0.82786 2.91145z"/>
			<path d="m194.527 118.291h-2.13941l-4.20439-4.57647h-0.0372v4.57647h-1.52549v-14.1015h1.52549v8.93899h0.0372l3.99975-4.36252h1.99988l-4.41833 4.59506z"/>
			<path d="m203.745 113.91h-6.72517q0.0372 1.5906 0.85577 2.45566 0.81855 0.86507 2.25102 0.86507 1.6092 0 2.95796-1.0604v1.43247q-1.25574 0.91157-3.32073 0.91157-2.01848 0-3.1719-1.29295-1.15342-1.30224-1.15342-3.65559 0-2.22312 1.25574-3.61838 1.26504-1.40457 3.13469-1.40457 1.86966 0 2.89285 1.20923t1.02319 3.35794zm-1.56269-1.29295q-9e-3 -1.32085-0.64182-2.05568-0.62322-0.73484-1.73943-0.73484-1.07901 0-1.83245 0.77204-0.75344 0.77205-0.93017 2.01848z"/>
			<path d="m211.019 110.31q-0.39998-0.30696-1.15342-0.30696-0.97669 0-1.63711 0.92087-0.65112 0.92088-0.65112 2.51148v4.85552h-1.52549v-9.525h1.52549v1.96267h0.0372q0.32557-1.00459 0.99529-1.5627 0.66973-0.56741 1.49758-0.56741 0.59532 0 0.91158 0.13023z"/>
			<path d="m219.167 117.854q-1.0976 0.66043-2.60449 0.66043-2.03708 0-3.29282-1.32085-1.24644-1.33015-1.24644-3.44165 0-2.35335 1.34876-3.77651 1.34875-1.43248 3.59978-1.43248 1.25574 0 2.21382 0.46509v1.5627q-1.0604-0.74414-2.26963-0.74414-1.46038 0-2.39985 1.0511-0.93018 1.04179-0.93018 2.74401 0 1.67432 0.87436 2.6417 0.88367 0.96739 2.36265 0.96739 1.24644 0 2.34404-0.82786z"/>
			<path d="m223 118.291h-1.52548v-14.1015h1.52548z"/>
			<path d="m226.869 106.347q-0.40928 0-0.69764-0.27905-0.28835-0.27906-0.28835-0.70694t0.28835-0.70693q0.28836-0.28835 0.69764-0.28835 0.41858 0 0.70693 0.28835 0.29766 0.27905 0.29766 0.70693 0 0.40928-0.29766 0.69764-0.28835 0.28835-0.70693 0.28835zm0.74414 11.9435h-1.52549v-9.525h1.52549z"/>
			<path d="m238.357 113.91h-6.72517q0.0372 1.5906 0.85576 2.45566 0.81856 0.86507 2.25103 0.86507 1.6092 0 2.95796-1.0604v1.43247q-1.25574 0.91157-3.32073 0.91157-2.01848 0-3.1719-1.29295-1.15342-1.30224-1.15342-3.65559 0-2.22312 1.25574-3.61838 1.26504-1.40457 3.13469-1.40457 1.86966 0 2.89285 1.20923t1.02319 3.35794zm-1.56269-1.29295q-9e-3 -1.32085-0.64182-2.05568-0.62322-0.73484-1.73943-0.73484-1.07901 0-1.83245 0.77204-0.75344 0.77205-0.93017 2.01848z"/>
			<path d="m248.57 118.291h-1.52549v-5.43223q0-3.03237-2.21382-3.03237-1.14411 0-1.89756 0.86506-0.74414 0.85576-0.74414 2.16731v5.43223h-1.52548v-9.525h1.52548v1.5813h0.0372q1.079-1.80455 3.12539-1.80455 1.5627 0 2.39055 1.0139 0.82786 1.00459 0.82786 2.91145z"/>
			<path d="m255.863 118.198q-0.5395 0.29765-1.42317 0.29765-2.50217 0-2.50217-2.79052v-5.63687h-1.63711v-1.30224h1.63711v-2.32544l1.52549-0.493v2.81844h2.39985v1.30224h-2.39985v5.36712q0 0.95808 0.32556 1.36736 0.32556 0.40927 1.079 0.40927 0.57671 0 0.99529-0.31626z"/>
		</g>
	</g>
	<g display="none">
		<path transform="scale(.264583)" d="m0 0v640h1280v-640zm80 80h1120v480h-1120z" fill="#faa" stop-color="#000000" style="paint-order:stroke fill markers"/>
	</g>
</svg>
