<?xml version="1.0" encoding="UTF-8" standalone="no"?>
<svg
   width="256"
   height="256"
   version="1.1"
   viewBox="0 0 67.8 67.8"
   id="svg58"
   sodipodi:docname="icon.svg"
   xml:space="preserve"
   inkscape:version="1.2.2 (b0a8486541, 2022-12-01)"
   inkscape:export-filename="icon512x512.png"
   inkscape:export-xdpi="192"
   inkscape:export-ydpi="192"
   xmlns:inkscape="http://www.inkscape.org/namespaces/inkscape"
   xmlns:sodipodi="http://sodipodi.sourceforge.net/DTD/sodipodi-0.dtd"
   xmlns:xlink="http://www.w3.org/1999/xlink"
   xmlns="http://www.w3.org/2000/svg"
   xmlns:svg="http://www.w3.org/2000/svg"><defs
     id="defs62"><linearGradient
       inkscape:collect="always"
       id="linearGradient960"><stop
         style="stop-color:#4c4c4c;stop-opacity:1;"
         offset="0"
         id="stop956" /><stop
         style="stop-color:#000000;stop-opacity:1;"
         offset="0.70377982"
         id="stop958" /></linearGradient><linearGradient
       inkscape:collect="always"
       id="linearGradient1234"><stop
         style="stop-color:#ffffff;stop-opacity:1;"
         offset="0"
         id="stop1230" /><stop
         style="stop-color:#ffffff;stop-opacity:0;"
         offset="1"
         id="stop1232" /></linearGradient><linearGradient
       inkscape:collect="always"
       id="linearGradient13502"><stop
         style="stop-color:#70a4c3;stop-opacity:1;"
         offset="0"
         id="stop13498" /><stop
         style="stop-color:#cbdce9;stop-opacity:0;"
         offset="0.69999999"
         id="stop13500" /></linearGradient><linearGradient
       inkscape:collect="always"
       id="linearGradient11949"><stop
         style="stop-color:#70a4c3;stop-opacity:1;"
         offset="0"
         id="stop11945" /><stop
         style="stop-color:#cbdce9;stop-opacity:0;"
         offset="1"
         id="stop11947" /></linearGradient><linearGradient
       inkscape:collect="always"
       id="linearGradient10333"><stop
         style="stop-color:#70a4c3;stop-opacity:1;"
         offset="0"
         id="stop10329" /><stop
         style="stop-color:#cbdce9;stop-opacity:0;"
         offset="1"
         id="stop10331" /></linearGradient><linearGradient
       inkscape:collect="always"
       id="linearGradient10263"><stop
         style="stop-color:#70a4c3;stop-opacity:1;"
         offset="0"
         id="stop10259" /><stop
         style="stop-color:#cbdce9;stop-opacity:0;"
         offset="1"
         id="stop10261" /></linearGradient><linearGradient
       inkscape:collect="always"
       id="linearGradient7967"><stop
         style="stop-color:#70a4c3;stop-opacity:1;"
         offset="0"
         id="stop7963" /><stop
         style="stop-color:#c9dbe9;stop-opacity:0;"
         offset="1"
         id="stop7965" /></linearGradient><linearGradient
       inkscape:collect="always"
       id="linearGradient5524"><stop
         style="stop-color:#ffffff;stop-opacity:1;"
         offset="0.27213833"
         id="stop5520" /><stop
         style="stop-color:#ffffff;stop-opacity:0;"
         offset="1"
         id="stop5522" /></linearGradient><linearGradient
       id="WhiteTransparent"
       gradientUnits="userSpaceOnUse"><stop
         style="stop-color:white;stop-opacity:1"
         offset="0"
         id="stop7" /><stop
         style="stop-color:white;stop-opacity:0"
         offset="1"
         id="stop9" /></linearGradient><linearGradient
       id="BlackTransparent"
       gradientUnits="userSpaceOnUse"><stop
         style="stop-color:black;stop-opacity:1"
         offset="0"
         id="stop12" /><stop
         style="stop-color:black;stop-opacity:0"
         offset="1"
         id="stop14" /></linearGradient><linearGradient
       id="liquidShade"
       xlink:href="#BlackTransparent"
       x1="0"
       y1="128"
       x2="0"
       y2="64"
       gradientUnits="userSpaceOnUse" /><linearGradient
       id="liquidSpecular"
       xlink:href="#WhiteTransparent"
       x1="0"
       y1="128"
       x2="0"
       y2="76"
       gradientUnits="userSpaceOnUse" /><linearGradient
       id="sideSpecular"
       xlink:href="#WhiteTransparent"
       x1="80"
       y1="20"
       x2="60"
       y2="40"
       gradientUnits="userSpaceOnUse" /><linearGradient
       id="IcecapTip"
       xlink:href="#WhiteTransparent"
       x1="60"
       y1="20"
       x2="90"
       y2="50"
       gradientUnits="userSpaceOnUse" /><linearGradient
       id="shinySpecular"
       xlink:href="#WhiteTransparent"
       x1="33"
       y1="35"
       x2="58"
       y2="60"
       gradientUnits="userSpaceOnUse" /><clipPath
       clipPathUnits="userSpaceOnUse"
       id="clipoutline1"><path
         id="outline1"
         d="M 54.1,12.5 L 12.9,54.7 C -2.7,70.3 23,69 32.3,74.9 C 36.6,77.7 18.5,81.3 22.2,85 C 25.8,88.7 43.9,92.1 47.5,95.7 C 51.1,99.4 40.2,103.3 43.8,107 C 47.3,110.7 55.7,107.2 57.2,115.6 C 58.3,121.8 72.6,118.7 79,113.4 C 83,110 72.1,110 75.7,106.3 C 84.7,97.2 92.7,102.2 96,93.8 C 97.8,89.3 82.4,86.1 86.5,83.2 C 96.3,76.3 132.3,72.8 115.7,56.2 L 73,12.5 C 67.7,7.5 59,7.5 54.1,12.5 z M 44.2,77.2 C 45.1,77.2 75,81.2 63.5,84.3 C 59.1,85.5 38.9,77.2 44.2,77.2 z M 101.4,93.8 C 101.4,95.9 117.7,97.1 116.8,93.3 C 115.5,86.9 103.2,87.4 101.4,93.8 z M 31.9,104.9 C 35.6,108.1 41.2,104.2 43,99.7 C 39.4,95 26.1,100 31.9,104.9 z M 99.4,98.2 C 94.8,102.4 100.2,106.8 104.7,103.9 C 105.9,103.1 104.6,99.2 99.4,98.2 z " /></clipPath><filter
       id="ShadowBlur"
       filterUnits="userSpaceOnUse"
       x="0"
       y="0"><feGaussianBlur
         in="SourceAlpha"
         stdDeviation="3"
         result="blur"
         id="feGaussianBlur24" /></filter><linearGradient
       gradientUnits="userSpaceOnUse"
       id="linearGradient5785"><stop
         id="stop5787"
         offset="0"
         style="stop-color:#c0cdf9;stop-opacity:1" /><stop
         id="stop5789"
         offset="1"
         style="stop-color:#07092d;stop-opacity:0.28804347" /></linearGradient><clipPath
       clipPathUnits="userSpaceOnUse"
       id="clipPath9086"><use
         id="use9088"
         xlink:href="#outline1"
         class="low-specularity"
         style="fill:#ffffff;fill-opacity:1"
         x="0"
         y="0"
         width="400"
         height="300"
         transform="translate(1.009546e-6,0)" /></clipPath><linearGradient
       gradientUnits="userSpaceOnUse"
       y2="60"
       x2="58"
       y1="35"
       x1="33"
       xlink:href="#WhiteTransparent"
       id="shinySpecular-4"
       gradientTransform="matrix(1.009184,0,0,1.009184,-0.3890738,-0.3831933)" /><filter
       inkscape:collect="always"
       style="color-interpolation-filters:sRGB"
       id="filter5516"
       x="-0.10116594"
       y="-0.10572328"
       width="1.2562756"
       height="1.2114033"><feGaussianBlur
         inkscape:collect="always"
         stdDeviation="0.69821202"
         id="feGaussianBlur5518" /></filter><radialGradient
       inkscape:collect="always"
       xlink:href="#linearGradient1234"
       id="radialGradient5526"
       cx="-121.52703"
       cy="105.66667"
       fx="-121.52703"
       fy="105.66667"
       r="122.42377"
       gradientTransform="matrix(-1.3722381,0,0,-1.0746771,-231.18963,249.1717)"
       gradientUnits="userSpaceOnUse" /><radialGradient
       inkscape:collect="always"
       xlink:href="#linearGradient5524"
       id="radialGradient6451"
       gradientUnits="userSpaceOnUse"
       gradientTransform="matrix(-0.45011083,0,0,-0.62820738,-75.495933,219.40153)"
       cx="-168.84187"
       cy="83.430176"
       fx="-168.84187"
       fy="83.430176"
       r="122.42377" /><radialGradient
       inkscape:collect="always"
       xlink:href="#linearGradient5524"
       id="radialGradient7233"
       gradientUnits="userSpaceOnUse"
       gradientTransform="matrix(-0.54197498,0,0,-0.73672731,-97.799956,228.72322)"
       cx="-218.57912"
       cy="77.39151"
       fx="-218.57912"
       fy="77.39151"
       r="122.42377" /><filter
       inkscape:collect="always"
       style="color-interpolation-filters:sRGB"
       id="filter7975"
       x="-0.033848051"
       y="-0.082488742"
       width="1.0676961"
       height="1.1649775"><feGaussianBlur
         inkscape:collect="always"
         stdDeviation="0.32229887"
         id="feGaussianBlur7977" /></filter><filter
       inkscape:collect="always"
       style="color-interpolation-filters:sRGB"
       id="filter8047"
       x="-0.043765854"
       y="-0.053141166"
       width="1.0875317"
       height="1.1062823"><feGaussianBlur
         inkscape:collect="always"
         stdDeviation="0.44035282"
         id="feGaussianBlur8049" /></filter><radialGradient
       inkscape:collect="always"
       xlink:href="#linearGradient10263"
       id="radialGradient10265"
       cx="43.815182"
       cy="23.248083"
       fx="43.815182"
       fy="23.248083"
       r="13.13072"
       gradientTransform="matrix(-0.98760747,0,0,-1.6733872,91.319344,68.858323)"
       gradientUnits="userSpaceOnUse" /><radialGradient
       inkscape:collect="always"
       xlink:href="#linearGradient7967"
       id="radialGradient10267"
       cx="36.313244"
       cy="39.740562"
       fx="36.313244"
       fy="39.740562"
       r="12.199837"
       gradientTransform="matrix(1.1854683,0.31764528,-0.20374615,0.76039099,2.8920119,3.4419065)"
       gradientUnits="userSpaceOnUse" /><filter
       inkscape:collect="always"
       style="color-interpolation-filters:sRGB"
       id="filter10325"
       x="-0.043711009"
       y="-0.051292842"
       width="1.087422"
       height="1.1025857"><feGaussianBlur
         inkscape:collect="always"
         stdDeviation="0.22048424"
         id="feGaussianBlur10327" /></filter><radialGradient
       inkscape:collect="always"
       xlink:href="#linearGradient10333"
       id="radialGradient10335"
       cx="60.333176"
       cy="42.760754"
       fx="60.333176"
       fy="42.760754"
       r="6.3020139"
       gradientTransform="matrix(-1.3595501,0,0,-1.631689,142.35915,112.27051)"
       gradientUnits="userSpaceOnUse" /><filter
       inkscape:collect="always"
       style="color-interpolation-filters:sRGB"
       id="filter11941"
       x="-0.06123823"
       y="-0.039467978"
       width="1.1224765"
       height="1.078936"><feGaussianBlur
         inkscape:collect="always"
         stdDeviation="0.27595489"
         id="feGaussianBlur11943" /></filter><radialGradient
       inkscape:collect="always"
       xlink:href="#linearGradient11949"
       id="radialGradient11951"
       cx="16.723314"
       cy="30.377914"
       fx="16.723314"
       fy="30.377914"
       r="6.0697943"
       gradientTransform="matrix(1.9982923,0,0,1.5014631,-16.698368,-17.799427)"
       gradientUnits="userSpaceOnUse" /><filter
       inkscape:collect="always"
       style="color-interpolation-filters:sRGB"
       id="filter12510"
       x="-0.011091357"
       y="-0.019849625"
       width="1.0222247"
       height="1.0396945"><feGaussianBlur
         inkscape:collect="always"
         stdDeviation="0.57915325"
         id="feGaussianBlur12508" /></filter><linearGradient
       inkscape:collect="always"
       xlink:href="#linearGradient13502"
       id="linearGradient13317"
       x1="21.525541"
       y1="23.348927"
       x2="7.580617"
       y2="22.983988"
       gradientUnits="userSpaceOnUse"
       gradientTransform="translate(-0.13656006,-0.01519489)" /><filter
       inkscape:collect="always"
       style="color-interpolation-filters:sRGB"
       id="filter13331"
       x="-0.027848601"
       y="-0.17366475"
       width="1.0556972"
       height="1.3473295"><feGaussianBlur
         inkscape:collect="always"
         stdDeviation="0.15573459"
         id="feGaussianBlur13333" /></filter><filter
       inkscape:collect="always"
       style="color-interpolation-filters:sRGB"
       id="filter3667"
       x="-0.13965976"
       y="-0.12842294"
       width="1.2793026"
       height="1.2239525"><feGaussianBlur
         inkscape:collect="always"
         stdDeviation="0.57013749"
         id="feGaussianBlur3665" /></filter><linearGradient
       inkscape:collect="always"
       xlink:href="#linearGradient960"
       id="linearGradient962"
       x1="44.639416"
       y1="8.8180294"
       x2="30.178333"
       y2="36.903461"
       gradientUnits="userSpaceOnUse" /></defs><sodipodi:namedview
     id="namedview60"
     pagecolor="#505050"
     bordercolor="#eeeeee"
     borderopacity="1"
     inkscape:showpageshadow="0"
     inkscape:pageopacity="0"
     inkscape:pagecheckerboard="0"
     inkscape:deskcolor="#505050"
     showgrid="false"
     inkscape:zoom="0.70710678"
     inkscape:cx="-468.8118"
     inkscape:cy="362.74578"
     inkscape:window-width="2560"
     inkscape:window-height="1363"
     inkscape:window-x="0"
     inkscape:window-y="0"
     inkscape:window-maximized="1"
     inkscape:current-layer="layer2" /><title
     id="title54">anotherkrunkerclient</title><style
     type="text/css"
     id="style26">
	.specularity {opacity:0.5;}
	.low-specularity {opacity:0.25;}
	.full-specularity {opacity:1;}
	.black {fill:#000000;}
	.white {fill:#ffffff;}
	.outline-big {stroke-width:16;stroke:none;opacity:0.1;fill:none;}
	.outline-small {stroke-width:8;stroke:none;opacity:0.2;fill:none;}
	.stroke-highlight {fill:none;stroke:none;opacity:0.2;}
       	.base-shadow 	{fill:black;opacity:75;}
	</style><g
     inkscape:groupmode="layer"
     id="layer2"
     inkscape:label="Outline"><path
       id="path2174"
       style="display:inline;fill:url(#linearGradient962);fill-opacity:1;stroke-width:0.482545"
       d="m 34.060355,14.385361 a 19.491552,19.491552 0 0 0 -13.6648,5.609825 C 18.021348,19.678219 15.614531,19.476699 13.337883,19.461877 7.4573269,19.423594 2.4458975,20.628101 1.1126541,24.287 -0.73446761,29.356163 5.5041522,34.812664 15.383698,39.432751 a 19.491552,19.491552 0 0 0 18.676657,13.935851 19.491552,19.491552 0 0 0 11.041191,-3.430554 l -0.470201,-1.47578 c 2.229817,0.3719 8.370313,1.260994 13.486857,0.745908 6.375927,-0.64187 10.070549,-3.771827 8.537073,-8.408789 C 65.446328,37.143746 60.485276,33.212751 53.086171,29.661983 A 19.491552,19.491552 0 0 0 34.060355,14.385361 Z M 15.150925,26.29557 c 0.296255,-0.0017 0.610432,0.01002 0.951782,0.03207 a 19.491552,19.491552 0 0 0 -1.103861,3.521595 c -0.665596,-0.405927 -2.672924,-1.594786 -2.499462,-2.597745 0.05817,-0.336333 0.26561,-0.63418 0.970921,-0.781082 0.563073,-0.11728 1.089599,-0.171396 1.68062,-0.174838 z m 38.021113,11.333968 c 0.821221,0.521993 1.509707,1.270248 1.48716,1.866838 -0.01644,0.434748 -0.67967,1.015826 -2.274966,0.982301 a 19.491552,19.491552 0 0 0 0.787806,-2.849139 z"
       inkscape:label="Planet outline" /><path
       style="display:none;fill:#ff00da;fill-opacity:0.396756;stroke-width:0.264844"
       d="m 20.477886,24.024777 c -3.189441,-0.238226 -5.472452,-0.165663 -8.020329,0.365013 -1.994683,0.415456 -2.5807092,1.257988 -2.7452145,2.209167 -0.5400725,3.122727 6.4496875,6.913229 7.5561335,7.648194 0.890501,0.591522 3.20941,-10.222374 3.20941,-10.222374 z"
       id="path2243"
       sodipodi:nodetypes="csssc"
       inkscape:label="Left ring inner outline" /><path
       style="display:none;fill:#ff00da;fill-opacity:0.396756;stroke-width:0.264844"
       d="m 50.872048,32.840882 c 3.373065,1.724243 6.58045,4.800158 6.490955,7.168112 -0.06096,1.612874 -2.740561,3.821173 -9.308875,3.250112 0.786409,-2.081788 1.783376,-8.688363 2.81792,-10.418224 z"
       id="path2232"
       sodipodi:nodetypes="cscc"
       inkscape:label="Right ring inner outline" /></g><g
     inkscape:groupmode="layer"
     id="layer1"
     inkscape:label="Base color"
     style="display:inline"><path
       d="m 34.7679,17.0611 a 16.8547,16.8523 0.0664556 0 0 -13.3424,5.75475 c -2.82192,-0.425756 -5.48159,-0.698888 -7.57038,-0.706151 -3.29693,-0.01147 -5.10485,0.173356 -6.89225,0.704663 -2.04413,0.607621 -3.0899,1.39937 -3.4324,2.59773 -0.260469,0.911349 0.013494,1.93233 0.842062,3.13576 0.811985,1.17935 2.2011,2.50628 3.96034,3.78312 0.677365,0.491627 2.35431,1.58473 3.23986,2.11181 0.765771,0.455789 3.46437,1.91019 4.36453,2.35257 0.553354,0.271942 1.13094,0.545121 1.72517,0.817679 a 16.8547,16.8523 0.0664556 0 0 15.7286,13.1246 16.8547,16.8523 0.0664556 0 0 9.47182,-2.4607 c -4.15906,-1.52089 -9.48735,-4.06767 -12.6653,-5.92494 2.33521,0.712655 5.86438,1.68828 6.97158,1.92154 0.212615,0.04482 0.530147,0.12147 0.705442,0.17063 0.396311,0.11113 3.6127,0.799643 4.05564,0.868047 0.179005,0.02764 0.527694,0.09223 0.774339,0.143844 0.686162,0.143581 1.76769,0.317282 3.64087,0.58374 1.64894,0.23456 3.50192,0.430801 5.26441,0.558433 0.984112,0.07127 3.25973,0.107893 4.33276,0.06967 3.60244,-0.128355 6.21028,-0.814729 7.45989,-1.96382 1.04544,-0.961339 1.2236,-2.02881 0.5781,-3.46538 -0.653043,-1.45335 -2.22813,-3.099 -4.63928,-4.84736 -1.58135,-1.14666 -3.38736,-2.24941 -5.56891,-3.40008 -1.01467,-0.535197 -2.02494,-1.03737 -3.05146,-1.52261 a 16.8547,16.8523 0.0664556 0 0 -15.9531,-14.4076 z m -15.88,6.81261 c 0.488082,0.02197 1.0394,0.06365 1.586,0.110655 a 16.8547,16.8523 0.0664556 0 0 -3.23499,9.22671 16.8547,16.8523 0.0664556 0 0 0.03045,0.99524 c -0.189547,-0.110498 -0.377294,-0.221559 -0.561288,-0.33279 -3.2677,-1.97542 -6.03063,-4.1391 -6.76914,-5.83387 -0.213446,-0.489832 -0.263523,-0.743865 -0.241395,-1.2316 0.015977,-0.35218 0.040797,-0.436122 0.111226,-0.65334 0.117912,-0.363662 0.417851,-0.763247 0.752306,-1.04584 0.919882,-0.777245 3.94767,-1.28591 7.74878,-1.25163 0.177556,0.0017 0.3723,0.0073 0.578045,0.01643 z m 31.978,8.94528 c 0.299902,0.173194 0.59851,0.348325 0.89566,0.528353 3.07096,1.86053 4.37589,3.40176 5.21447,5.02698 0.29242,0.56665 0.472769,1.51848 0.343955,2.00491 -0.120413,0.454702 -0.438977,0.916358 -0.866939,1.25695 -1.16191,0.924695 -2.73863,1.60324 -5.74946,1.70526 -0.867293,0.02344 -1.76122,-0.0283 -2.64819,-0.08102 a 16.8547,16.8523 0.0664556 0 0 2.86473,-8.67275 16.8547,16.8523 0.0664556 0 0 -0.05422,-1.76868 z"
       fill="#efefef"
       stop-color="#000000"
       stroke="#000"
       stroke-linejoin="round"
       stroke-width="5.29688"
       style="mix-blend-mode:normal;fill:#ffffff;fill-opacity:1;stroke:#000000;stroke-opacity:0;paint-order:stroke fill markers"
       id="path56" /></g><g
     inkscape:groupmode="layer"
     id="layer3"
     inkscape:label="Shading"><path
       style="display:inline;mix-blend-mode:normal;fill:none;fill-opacity:1;stroke:url(#radialGradient6451);stroke-width:2.60933494;stroke-linecap:round;stroke-linejoin:miter;stroke-dasharray:none;stroke-opacity:0.404405;filter:url(#filter3667);enable-background:new"
       d="m -28.000095,227.80142 c 2.074486,-4.97017 4.237087,-18.41142 4.607473,-23.59312 18.8963328,11.48485 19.5773112,25.72866 0.790998,27.98083"
       id="path6449"
       transform="matrix(0.26393756,0,0,0.26385498,58.334437,-18.816435)"
       sodipodi:nodetypes="ccc"
       inkscape:label="Right ring inner outline" /><path
       style="display:inline;mix-blend-mode:normal;fill:none;fill-opacity:1;stroke:url(#radialGradient7233);stroke-width:2.60933494;stroke-linecap:round;stroke-linejoin:miter;stroke-dasharray:none;stroke-opacity:0.404405;filter:url(#filter5516);enable-background:new"
       d="m -12.878141,235.4462 c -15.080104,-7.73537 -22.221957,-19.9956 -19.213208,-23.10516 4.120982,-4.25906 21.181518,-5.45739 28.8251231,-5.00817 -4.9016028,5.10408 -8.2762091,12.63821 -9.3917011,21.54483"
       id="path7231"
       transform="matrix(0.26393756,0,0,0.26385498,19.795375,-29.888939)"
       sodipodi:nodetypes="cccc"
       inkscape:label="Left ring inner outline" /><g
       inkscape:groupmode="layer"
       id="layer4"
       inkscape:label="Planet shading"><path
         style="fill:url(#radialGradient10265);fill-opacity:1;stroke:none;stroke-width:0.344297;stroke-linecap:round;stroke-linejoin:miter;stroke-dasharray:none;stroke-opacity:0.404405;filter:url(#filter8047)"
         d="m 46.322771,22.89026 c 4.80673,6.351731 4.806913,13.990963 1.416434,19.870489 -5.922686,0.257681 -15.321441,-2.446071 -21.758944,-5.407505 7.549647,2.058431 19.558467,5.277114 21.415304,1.330113 C 50.15155,32.825075 46.322771,22.89026 46.322771,22.89026 Z"
         id="path8045"
         sodipodi:nodetypes="cccsc" /><path
         style="fill:url(#radialGradient10335);fill-opacity:1;stroke:none;stroke-width:0.344297;stroke-linecap:round;stroke-linejoin:miter;stroke-dasharray:none;stroke-opacity:0.404405;filter:url(#filter10325)"
         d="m 54.281867,34.122697 c 7.168943,7.417936 1.830854,10.483079 -5.608755,9.377278 4.106525,1.126643 10.022868,1.431915 11.55881,-0.167192 1.903995,-1.982296 -1.422315,-6.077196 -5.950055,-9.210086 z"
         id="path10323"
         sodipodi:nodetypes="ccsc" /><path
         style="fill:url(#radialGradient11951);fill-opacity:1;stroke:none;stroke-width:0.344297;stroke-linecap:round;stroke-linejoin:miter;stroke-dasharray:none;stroke-opacity:0.404405;filter:url(#filter11941)"
         d="m 17.685576,34.224105 c 0.386251,-5.793936 3.433457,-12.87537 10.815005,-15.621733 -8.564824,6.962961 -8.314245,11.888365 -8.154231,16.780484 -1.287684,-0.343455 -2.660774,-1.158751 -2.660774,-1.158751 z"
         id="path11939"
         sodipodi:nodetypes="cccc" /><path
         style="fill:url(#linearGradient13317);fill-opacity:1;stroke:none;stroke-width:0.42375;stroke-linecap:round;stroke-linejoin:miter;stroke-dasharray:none;stroke-opacity:0.404405;filter:url(#filter13331)"
         d="m 20.415409,23.870139 c -4.803948,-0.500647 -8.638691,-0.268517 -9.968023,0.677317 -8.8085598,-2.62406 6.841983,-2.409033 10.771967,-1.643129 -0.315021,0.377767 -0.803944,0.965812 -0.803944,0.965812 z"
         id="path12989"
         sodipodi:nodetypes="cccc" /><path
         style="mix-blend-mode:normal;fill:url(#radialGradient10267);fill-opacity:1;stroke:none;stroke-width:0.344297;stroke-linecap:round;stroke-linejoin:miter;stroke-dasharray:none;stroke-opacity:0.404405;filter:url(#filter7975)"
         d="m 27.143735,40.571551 c 4.162629,3.503388 9.236889,5.835625 14.907361,7.873874 -3.535302,1.775409 -17.086599,3.908287 -22.85264,-7.987697 3.717857,4.224399 10.247472,7.614342 12.897166,8.269384 9.276973,2.293395 -4.951887,-8.155561 -4.951887,-8.155561 z"
         id="path7961"
         sodipodi:nodetypes="cccsc" /></g><path
       style="display:inline;mix-blend-mode:normal;fill:none;fill-opacity:1;stroke:url(#radialGradient5526);stroke-width:2.60933;stroke-linecap:round;stroke-linejoin:round;stroke-dasharray:none;stroke-opacity:0.404405;filter:url(#filter12510);enable-background:new"
       d="m -112.17349,265.12358 c -21.08883,-6.32928 -39.89244,-22.0575 -45.28182,-48.60092 -31.91722,-15.83916 -61.3124,-37.48409 -53.99121,-52.95 8.06052,-17.02773 50.62818,-15.28715 68.5287,-11.69528 11.99832,-14.36354 41.9342,-28.64471 70.511655,-19.82462 31.618557,9.75869 47.120777,36.68719 49.535288,53.9391 6.951623,2.83362 58.062111,27.74769 51.607197,49.22971 -5.978951,19.89802 -63.586356,24.02075 -133.59941,-3.03788"
       id="path5513"
       transform="matrix(0.26393756,0,0,0.26385498,58.334437,-18.816435)"
       sodipodi:nodetypes="ccscscsc"
       inkscape:label="Planet outline shade" /></g></svg>
