<svg width="256" height="256" version="1.1" viewBox="0 0 67.8 67.8" xmlns="http://www.w3.org/2000/svg">
	<title>anotherkrunkerclient</title>
	<path d="m34.7679 17.0611a16.8547 16.8523 0.0664556 0 0-13.3424 5.75475c-2.82192-0.425756-5.48159-0.698888-7.57038-0.706151-3.29693-0.01147-5.10485 0.173356-6.89225 0.704663-2.04413 0.607621-3.0899 1.39937-3.4324 2.59773-0.260469 0.911349 0.013494 1.93233 0.842062 3.13576 0.811985 1.17935 2.2011 2.50628 3.96034 3.78312 0.677365 0.491627 2.35431 1.58473 3.23986 2.11181 0.765771 0.455789 3.46437 1.91019 4.36453 2.35257 0.553354 0.271942 1.13094 0.545121 1.72517 0.817679a16.8547 16.8523 0.0664556 0 0 15.7286 13.1246 16.8547 16.8523 0.0664556 0 0 9.47182-2.4607c-4.15906-1.52089-9.48735-4.06767-12.6653-5.92494 2.33521 0.712655 5.86438 1.68828 6.97158 1.92154 0.212615 0.04482 0.530147 0.12147 0.705442 0.17063 0.396311 0.11113 3.6127 0.799643 4.05564 0.868047 0.179005 0.02764 0.527694 0.09223 0.774339 0.143844 0.686162 0.143581 1.76769 0.317282 3.64087 0.58374 1.64894 0.23456 3.50192 0.430801 5.26441 0.558433 0.984112 0.07127 3.25973 0.107893 4.33276 0.06967 3.60244-0.128355 6.21028-0.814729 7.45989-1.96382 1.04544-0.961339 1.2236-2.02881 0.5781-3.46538-0.653043-1.45335-2.22813-3.099-4.63928-4.84736-1.58135-1.14666-3.38736-2.24941-5.56891-3.40008-1.01467-0.535197-2.02494-1.03737-3.05146-1.52261a16.8547 16.8523 0.0664556 0 0-15.9531-14.4076zm-15.88 6.81261c0.488082 0.02197 1.0394 0.06365 1.586 0.110655a16.8547 16.8523 0.0664556 0 0-3.23499 9.22671 16.8547 16.8523 0.0664556 0 0 0.03045 0.99524c-0.189547-0.110498-0.377294-0.221559-0.561288-0.33279-3.2677-1.97542-6.03063-4.1391-6.76914-5.83387-0.213446-0.489832-0.263523-0.743865-0.241395-1.2316 0.015977-0.35218 0.040797-0.436122 0.111226-0.65334 0.117912-0.363662 0.417851-0.763247 0.752306-1.04584 0.919882-0.777245 3.94767-1.28591 7.74878-1.25163 0.177556 0.0017 0.3723 0.0073 0.578045 0.01643zm31.978 8.94528c0.299902 0.173194 0.59851 0.348325 0.89566 0.528353 3.07096 1.86053 4.37589 3.40176 5.21447 5.02698 0.29242 0.56665 0.472769 1.51848 0.343955 2.00491-0.120413 0.454702-0.438977 0.916358-0.866939 1.25695-1.16191 0.924695-2.73863 1.60324-5.74946 1.70526-0.867293 0.02344-1.76122-0.0283-2.64819-0.08102a16.8547 16.8523 0.0664556 0 0 2.86473-8.67275 16.8547 16.8523 0.0664556 0 0-0.05422-1.76868z" fill="#efefef" stop-color="#000000" stroke="#000" stroke-linejoin="round" stroke-width="5.29688" style="mix-blend-mode:normal;paint-order:stroke fill markers"/>
</svg>
