<svg width="164" height="314" version="1.1" viewBox="0 0 164 314" xmlns="http://www.w3.org/2000/svg">
	<title>anotherkrunkerclient</title>
	<g>
		<rect width="164" height="314" fill="#161719" stop-color="#000000" style="paint-order:stroke fill markers"/>
		<path d="m73.0566 28.959-30.668 78.7402h16.8652l6.49805-17.8867h4.70312c1.79653-2.84573 3.61332-5.67885 5.4668-8.48828 1.06071-1.59815 2.13276-3.18967 3.21094-4.77734h-8.49219l10.6348-29.2188 6.36328 17.1348c3.48616-4.76621 7.09059-9.44503 10.8398-14.0039l-8.60938-21.5h-16.8125zm31.8457 37.543c-1.19275 1.51117-2.37018 3.03548-3.52929 4.57227-4.58364 6.09233-8.95676 12.3614-13.1602 18.7383h9.01367l6.875 17.8867h17.2949l-16.4941-41.1973zm-54.2969 50.457v7.01563c1.25703-2.34676 2.5278-4.68609 3.81641-7.01563h-3.81641zm48.0176 0-32.1191 34.9648v-25.7774c-2.29483 4.21842-4.54306 8.46329-6.73828 12.7344-3.14611 6.14493-6.20665 12.3988-9.16016 18.6953v38.123h15.8984v-23.7949l12.8906-13.1582 17.5938 30.0332c1.04903-1.91755 2.09605-3.83599 3.125-5.76368 1.99313-3.74553 3.94446-7.53946 5.86719-11.3535l-15.6289-24.0352 29.6484-30.668h-21.377zm16.8105 69.2402c-0.44406 0.84293-0.87635 1.69232-1.32421 2.5332-1.24691 2.33021-2.51207 4.65115-3.78711 6.9668h11.2891l-6.17774-9.5zm-30.9902 17.416c-11.0286 0-19.9258 3.63542-26.6934 10.9043-6.76758 7.23307-10.1523 17.4024-10.1523 30.5078 0 5.11938 0.608421 9.76543 1.75781 13.9922 0.687298-0.75309 1.36774-1.51191 2.04297-2.27344 4.3607-4.93859 8.52901-10.1654 12.4902-15.498 0.054321-0.07339 0.107845-0.14728 0.162109-0.22071 0.336213-7.92574 2.1121-13.7842 5.35352-17.5391 2.88251-3.3064 6.45621-5.2855 10.6992-5.98242 2.86442-4.51816 5.65365-9.08461 8.36523-13.6973-1.30808-0.1173-2.6428-0.19336-4.02539-0.19336zm18.6523 4.82618c-2.56651 4.40295-5.19516 8.76873-7.88672 13.0957 2.48331 2.27996 4.18908 5.21395 5.0254 8.88086l15.7383-3.75977c-1.79037-6.30208-4.47592-11.1361-8.05664-14.502-1.49456-1.41449-3.10253-2.65178-4.82032-3.71484zm-2.32422 46.3066c-1.32486 5.76497-3.50911 9.99023-6.55273 12.6758s-6.67708 4.02929-10.9023 4.02929c-5.72917 0-10.3841-2.11263-13.9648-6.33789-0.852041-1.0054-1.59484-2.18582-2.24414-3.51562-3.2646 4.0593-6.64391 8.02429-10.1641 11.8613 0.256836 0.29278 0.484491 0.60804 0.751953 0.89258 6.73177 7.12565 15.3255 10.6875 25.7812 10.6875 8.45052 0 15.416-2.07683 20.8945-6.23047 5.51433-4.18946 9.45313-10.5801 11.8164-19.1738l-15.416-4.88867z" fill="#efefef"/>
		<path d="m148.102 18.623a39.12 153.855 26.7518 0 0-106.685 132.279 39.12 153.855 26.7518 0 0-25.5196 144.475 39.12 153.855 26.7518 0 0 106.685-132.279 39.12 153.855 26.7518 0 0 25.5196-144.475zm-6.79557 14.2257a32.0258 137.959 26.5363 0 1-26.1027 129.141 32.0258 137.959 26.5363 0 1-92.5109 119.162 32.0258 137.959 26.5363 0 1 26.1027-129.141 32.0258 137.959 26.5363 0 1 92.5109-119.162z" fill="#efefef" stop-color="#000000" style="paint-order:stroke fill markers"/>
	</g>
</svg>
